<?xml version="1.0" encoding="utf-8"?>
<!-- Generator: Adobe Illustrator 24.0.0, SVG Export Plug-In . SVG Version: 6.00 Build 0)  -->
<svg version="1.1" id="Calque_1" focusable="false" xmlns="http://www.w3.org/2000/svg" xmlns:xlink="http://www.w3.org/1999/xlink"
	 x="0px" y="0px" viewBox="0 0 448 512" style="enable-background:new 0 0 448 512;" xml:space="preserve">
<style type="text/css">
	.st0{fill:#2D302D;}
</style>
<path class="st0" d="M400,32H48C21.5,32,0,53.5,0,80v352c0,26.5,21.5,48,48,48h352c26.5,0,48-21.5,48-48V80
	C448,53.5,426.5,32,400,32z M227.3,423.3L227.3,423.3C134.8,423.3,60,348.5,60,256S134.8,88.7,227.3,88.7
	c45.2,0,82.8,16.4,112.1,43.8l-45.4,43.7c-12.4-11.9-34-25.8-66.6-25.8c-57.1,0-103.6,47.2-103.6,105.8
	c0,58.4,46.5,105.8,103.6,105.8c66.3,0,91-47.7,95.1-72.1h-95.2v-57.6h158c1.7,8.4,2.7,16.9,2.7,27.8
	C388,355.6,323.9,423.3,227.3,423.3z"/>
</svg>
