<?xml version="1.0" encoding="utf-8"?>
<!-- Generator: Adobe Illustrator 24.0.0, SVG Export Plug-In . SVG Version: 6.00 Build 0)  -->
<svg version="1.1" id="Calque_1" focusable="false" xmlns="http://www.w3.org/2000/svg" xmlns:xlink="http://www.w3.org/1999/xlink"
	 x="0px" y="0px" viewBox="0 0 512 512" style="enable-background:new 0 0 512 512;" xml:space="preserve">
<style type="text/css">
	.st0{fill:#2D302D;}
</style>
<path class="st0" d="M440.8,21.4H72.2C44.5,21.4,22,43.9,22,71.6v368.5c0,27.7,22.5,50.2,50.2,50.2h368.5
	c27.7,0,50.2-22.5,50.2-50.2V71.6C491,43.9,468.5,21.4,440.8,21.4z M276.6,125.2l-89,222.1c-15.1,38.4-30.2,64.6-75.8,64.6
	c-6.5,0-13-0.5-19.3-1.6c-9.2-2.6-14.5-12.2-11.9-21.4c2.2-7.7,9.5-12.9,17.5-12.5c0.5,0,8.9,0.5,11.3,0.5
	c24.8,0,35.5-15.4,47.2-48.3L73.6,126.5c-3.5-10.6,2.2-22,12.8-25.6c9.7-3.2,20.3,1.3,24.7,10.6l65.8,166.6h1l62.6-165.3
	c3.8-9.8,14.9-14.7,24.7-10.8C274.5,105.5,279.4,115.6,276.6,125.2z M372,140.1c0.7-0.4,1.5-0.8,2.1-1.1c7.3-2.2,15.2,0.3,20,6.3
	c6.4,8.1,5.1,19.9-3,26.3c-39.1,21.4-96.3,47.2-105.8,40.6C275.9,205.6,359.6,146.9,372,140.1z M397.4,367.9
	c-2.9,9.9-13.3,15.6-23.2,12.8c-0.7-0.3-1.4-0.7-2.1-1.1c-12.4-6.8-96.1-65.5-86.7-72.1c9.4-6.6,66.6,19.2,105.8,40.6h0
	C397,352.7,399.5,360.6,397.4,367.9z M424.7,277.2c-44.6,0-107.2-4.9-112.3-15.2c-5.1-10.4,96.5-21.5,110.7-21.5c0.9,0,1.7,0,2.4,0
	l0,0c7.6,1.6,13.4,7.7,14.6,15.3C441.8,265.9,434.9,275.5,424.7,277.2z"/>
</svg>
